<?xml version="1.0" encoding="utf-8"?>
<svg id="Layer_1" data-name="Layer 1" xmlns="http://www.w3.org/2000/svg" viewBox="0 0 266.77766 65.47951">
<defs><style>.cls-1{opacity:0.31;}.cls-5{fill:#4f5054;}.cls-2{fill:#4f5054;fill-rule:evenodd;}.cls-3{fill:#e3c757;}.cls-4{fill:#e3c757;}</style></defs>
<rect class="cls-1" x="18.44432" y="27.47951" width="248.33333" height="38" rx="10"/>
<rect class="cls-5" x="18.44432" y="24.47951" width="248.33333" height="38" rx="10"/>
<path class="cls-2" d="M72.26086,18.33993a22.35184,22.35184,0,1,0,8.93931,42.82753c1.18075-.52064,14.49884,6.13148,14.49884,6.13148S87.184,57.01676,90.012,54.1766A22.37275,22.37275,0,0,0,72.26086,18.33993Z" transform="translate(-50.00469 -18.33993)"/>
<path class="cls-4" d="M72.26086,21.60455a19.10832,19.10832,0,0,1,15.24442,30.4729c-1.93167,2.15-1.44887,5.10037-.493,7.54628-4.17065-1.75-5.18909-1.74993-5.62838-1.74993a3.69552,3.69552,0,0,0-1.50094.3066A18.77223,18.77223,0,0,1,72.26086,59.779a19.08744,19.08744,0,0,1,0-38.1744m0-3.26462a22.35183,22.35183,0,1,0,8.93931,42.82754.46792.46792,0,0,1,.18369-.029c1.98127,0,14.31515,6.16053,14.31515,6.16053s-8.515-10.28219-5.687-13.12234A22.37276,22.37276,0,0,0,72.26086,18.33993Z" transform="translate(-50.00469 -18.33993)"/>
<path class="cls-4" d="M70.9853,47.46873h8.03945v2.75643H65.21419V47.46873H67.5973V41.00866H65.21419V39.28581H67.5973v-2.9286a6.539,6.539,0,0,1,1.59342-4.70851,5.96506,5.96506,0,0,1,4.52233-1.66547,7.42386,7.42386,0,0,1,3.1151.67492,7.61924,7.61924,0,0,1,2.56961,1.90936l-1.3492,2.64135a5.23414,5.23414,0,0,0-3.9912-2.18194A2.9403,2.9403,0,0,0,71.775,33.888a3.664,3.664,0,0,0-.7897,2.55558v2.8422h5.05315v1.72285H70.9853Z" transform="translate(-50.00469 -18.33993)"/>
<path class="cls-4" d="M70.9853,47.46873h8.03945v2.75643H65.21419V47.46873H67.5973V41.00866H65.21419V39.28581H67.5973v-2.9286a6.539,6.539,0,0,1,1.59342-4.70851,5.96506,5.96506,0,0,1,4.52233-1.66547,7.42386,7.42386,0,0,1,3.1151.67492,7.61924,7.61924,0,0,1,2.56961,1.90936l-1.3492,2.64135a5.23414,5.23414,0,0,0-3.9912-2.18194A2.9403,2.9403,0,0,0,71.775,33.888a3.664,3.664,0,0,0-.7897,2.55558v2.8422h5.05315v1.72285H70.9853Z" transform="translate(-50.00469 -18.33993)"/>
<path class="cls-3" d="M114.08057,57.49609a2.26389,2.26389,0,0,1,.94482,1.92774,2.32419,2.32419,0,0,1-1.84473,2.33984,2.67618,2.67618,0,0,1,1.64991.88526,2.63675,2.63675,0,0,1,.60009,1.77,2.4969,2.4969,0,0,1-1.02,2.11523,4.58319,4.58319,0,0,1-2.80517.76465h-4.665v-10.5h4.56006A4.26047,4.26047,0,0,1,114.08057,57.49609Zm-1.34229,3.28516a1.24276,1.24276,0,0,0,.47217-1.04248,1.18484,1.18484,0,0,0-.48-1.00488,2.09066,2.09066,0,0,0-1.31983-.34522h-2.70019v2.76026h2.70019A2.11825,2.11825,0,0,0,112.73828,60.78125Zm.29248,4.54492a1.28728,1.28728,0,0,0,.585-1.13183,1.26265,1.26265,0,0,0-.585-1.103,2.78459,2.78459,0,0,0-1.62012-.38233h-2.70019v3h2.70019A2.77693,2.77693,0,0,0,113.03076,65.32617Z" transform="translate(-50.00469 -18.33993)"/>
<path class="cls-3" d="M123.00537,59.769a3.67128,3.67128,0,0,1,1.47022,1.42481,4.14765,4.14765,0,0,1,.5249,2.1001,4.22277,4.22277,0,0,1-.5249,2.123,3.65928,3.65928,0,0,1-1.47022,1.43164,4.85442,4.85442,0,0,1-4.335,0A3.65612,3.65612,0,0,1,117.2002,65.417a4.21773,4.21773,0,0,1-.52491-2.123,4.1427,4.1427,0,0,1,.52491-2.1001,3.66809,3.66809,0,0,1,1.47021-1.42481,4.85867,4.85867,0,0,1,4.335,0Zm-3.92236,1.6875a2.90635,2.90635,0,0,0,0,3.74268,2.50882,2.50882,0,0,0,3.51758,0,2.91917,2.91917,0,0,0-.00782-3.74268,2.48019,2.48019,0,0,0-3.50976,0Z" transform="translate(-50.00469 -18.33993)"/>
<path class="cls-3" d="M132.38037,59.769a3.67128,3.67128,0,0,1,1.47022,1.42481,4.14765,4.14765,0,0,1,.5249,2.1001,4.22277,4.22277,0,0,1-.5249,2.123,3.65928,3.65928,0,0,1-1.47022,1.43164,4.85442,4.85442,0,0,1-4.335,0A3.65612,3.65612,0,0,1,126.5752,65.417a4.21773,4.21773,0,0,1-.52491-2.123,4.1427,4.1427,0,0,1,.52491-2.1001,3.66809,3.66809,0,0,1,1.47021-1.42481,4.85867,4.85867,0,0,1,4.335,0Zm-3.92236,1.6875a2.90635,2.90635,0,0,0,0,3.74268,2.50882,2.50882,0,0,0,3.51758,0,2.91917,2.91917,0,0,0-.00782-3.74268,2.48019,2.48019,0,0,0-3.50976,0Z" transform="translate(-50.00469 -18.33993)"/>
<path class="cls-3" d="M141.66553,67.29883l-2.34033-3.66016-1.34961,1.42578v2.23438h-1.7251V56.169h1.7251v6.71972l3.5249-3.56982h1.98l-2.95508,3.08984,3.18018,4.89014Z" transform="translate(-50.00469 -18.33993)"/>
<path class="cls-3" d="M154.38525,67.29883v-.97461a3.74,3.74,0,0,1-4.11767.72754,2.33523,2.33523,0,0,1-1.32715-2.15235,2.12374,2.12374,0,0,1,.79492-1.74072,3.4931,3.4931,0,0,1,2.21973-.65967h2.415v-.24023a1.48123,1.48123,0,0,0-.48731-1.18506,2.11575,2.11575,0,0,0-1.41748-.41992,4.20451,4.20451,0,0,0-2.355.81006l-.70508-1.2002a8.27928,8.27928,0,0,1,1.64258-.77246,5.95906,5.95906,0,0,1,1.79248-.23242,3.45983,3.45983,0,0,1,2.36963.74267,2.65293,2.65293,0,0,1,.85547,2.0625l.01465,5.23487Zm-.72754-1.7168a1.48723,1.48723,0,0,0,.71241-1.08789v-.73535H152.21a2.43581,2.43581,0,0,0-1.25244.248.88785.88785,0,0,0-.39746.81738,1.03954,1.03954,0,0,0,.4126.8623,1.79447,1.79447,0,0,0,1.13232.32227A2.73131,2.73131,0,0,0,153.65771,65.582Z" transform="translate(-50.00469 -18.33993)"/>
<path class="cls-3" d="M170.24707,57.73633a3.30626,3.30626,0,0,1,1.08789,2.64746,3.53768,3.53768,0,0,1-1.08789,2.76758,4.41516,4.41516,0,0,1-3.06738.98242h-2.415v3.165h-1.77v-10.5h4.18506A4.55544,4.55544,0,0,1,170.24707,57.73633Zm-1.25977,4.2749a1.92231,1.92231,0,0,0,.65235-1.58252,1.8218,1.8218,0,0,0-.65235-1.52978,3.00486,3.00486,0,0,0-1.88232-.51026h-2.34033V62.544H167.105A2.912,2.912,0,0,0,168.9873,62.01123Z" transform="translate(-50.00469 -18.33993)"/>
<path class="cls-3" d="M175.81934,59.67871a3.16541,3.16541,0,0,1,1.6499-.41992v1.6499a2.67148,2.67148,0,0,0-1.91992.55518,2.38712,2.38712,0,0,0-.83985,1.665v4.16992h-1.72509v-7.98h1.72509v1.58984A2.894,2.894,0,0,1,175.81934,59.67871Z" transform="translate(-50.00469 -18.33993)"/>
<path class="cls-3" d="M184.47461,59.769a3.67119,3.67119,0,0,1,1.47021,1.42481,4.14766,4.14766,0,0,1,.52491,2.1001,4.22277,4.22277,0,0,1-.52491,2.123,3.65919,3.65919,0,0,1-1.47021,1.43164,4.85442,4.85442,0,0,1-4.335,0,3.65621,3.65621,0,0,1-1.47022-1.43164,4.21783,4.21783,0,0,1-.5249-2.123,4.1428,4.1428,0,0,1,.5249-2.1001,3.66818,3.66818,0,0,1,1.47022-1.42481,4.85867,4.85867,0,0,1,4.335,0Zm-3.92236,1.6875a2.90635,2.90635,0,0,0,0,3.74268,2.50881,2.50881,0,0,0,3.51757,0,2.91915,2.91915,0,0,0-.00781-3.74268,2.48019,2.48019,0,0,0-3.50976,0Z" transform="translate(-50.00469 -18.33993)"/>
<path class="cls-3" d="M194.84668,59.769a3.49278,3.49278,0,0,1,1.34277,1.43994,4.57434,4.57434,0,0,1,.4795,2.12989,4.52188,4.52188,0,0,1-.47168,2.10058,3.43483,3.43483,0,0,1-1.32813,1.417,3.83179,3.83179,0,0,1-1.97949.50293,3.61117,3.61117,0,0,1-1.665-.36817,2.85679,2.85679,0,0,1-1.15527-1.07226v4.29h-1.72461V59.31885h1.72461v1.37988a2.88792,2.88792,0,0,1,1.14746-1.07227,3.5308,3.5308,0,0,1,1.64258-.36767A3.83211,3.83211,0,0,1,194.84668,59.769Zm-1.08691,5.78955a2.24951,2.24951,0,0,0,.8623-.92968,2.91452,2.91452,0,0,0,.30762-1.3501,2.79166,2.79166,0,0,0-.30762-1.31983,2.33015,2.33015,0,0,0-.8623-.92285,2.38115,2.38115,0,0,0-1.26075-.3374,2.42061,2.42061,0,0,0-1.25976.33008,2.26274,2.26274,0,0,0-.86231.92236,2.8404,2.8404,0,0,0-.30761,1.32764,2.63875,2.63875,0,0,0,.68261,1.88232,2.288,2.288,0,0,0,1.74707.72754A2.41243,2.41243,0,0,0,193.75977,65.55859Z" transform="translate(-50.00469 -18.33993)"/>
<path class="cls-3" d="M204.58105,60.32373a4.3934,4.3934,0,0,1,.9375,3q0,.19555-.02929.645H199.459a2.52065,2.52065,0,0,0,.87012,1.46289,2.47053,2.47053,0,0,0,1.60547.53223,3.19543,3.19543,0,0,0,1.22852-.24024,2.97091,2.97091,0,0,0,1.02148-.68945l.91406.97461a4.10924,4.10924,0,0,1-1.43945.998,4.77374,4.77374,0,0,1-1.86035.35254,4.33991,4.33991,0,0,1-2.1377-.51075,3.60163,3.60163,0,0,1-1.43164-1.4248,4.22933,4.22933,0,0,1-.51074-2.1001,4.276,4.276,0,0,1,.51074-2.10742,3.6421,3.6421,0,0,1,1.43164-1.43994,4.20138,4.20138,0,0,1,2.09278-.51758A3.568,3.568,0,0,1,204.58105,60.32373Zm-.59179,2.38525a2.11615,2.11615,0,0,0-.64453-1.51513,2.23124,2.23124,0,0,0-1.5752-.55518,2.29666,2.29666,0,0,0-1.57519.55518,2.38611,2.38611,0,0,0-.76563,1.51513Z" transform="translate(-50.00469 -18.33993)"/>
<path class="cls-3" d="M210.124,59.67871a3.16242,3.16242,0,0,1,1.64942-.41992v1.6499a2.67148,2.67148,0,0,0-1.91992.55518,2.38708,2.38708,0,0,0-.83985,1.665v4.16992h-1.72461v-7.98h1.72461v1.58984A2.88889,2.88889,0,0,1,210.124,59.67871Z" transform="translate(-50.00469 -18.33993)"/>
<path class="cls-3" d="M217.71387,66.78906a3.84461,3.84461,0,0,1-1.96485.585,2.10269,2.10269,0,0,1-2.23535-2.32519V60.90869h-1.125v-1.29h1.125V57.42871h1.71v2.18994h2.35547v1.29h-2.35547v3.82569a1.29134,1.29134,0,0,0,.21.83984.814.814,0,0,0,.64551.24023,2.92366,2.92366,0,0,0,1.2002-.3457Z" transform="translate(-50.00469 -18.33993)"/>
<path class="cls-3" d="M221.4043,69.81152a2.60681,2.60681,0,0,1-1.55957.47266,2.81112,2.81112,0,0,1-.9834-.165,3.05719,3.05719,0,0,1-.86231-.50976l.73536-1.335a2.24691,2.24691,0,0,0,.52539.29981,1.44272,1.44272,0,0,0,.50976.08984,1.29989,1.29989,0,0,0,1.21485-.88476l.26953-.60059-3.29981-7.85986h1.78516l2.38476,6.04541,2.22071-6.04541h1.72461l-3.62989,9.07568A3.0854,3.0854,0,0,1,221.4043,69.81152Z" transform="translate(-50.00469 -18.33993)"/>
<path class="cls-3" d="M230.53809,56.79883h1.90527l3.24023,8.53515,3.26954-8.53515h1.84472l-4.24512,10.5h-1.8291Z" transform="translate(-50.00469 -18.33993)"/>
<path class="cls-3" d="M246.19824,67.29883v-.97461a3.7392,3.7392,0,0,1-4.11719.72754,2.3352,2.3352,0,0,1-1.32714-2.15235,2.12372,2.12372,0,0,1,.79492-1.74072,3.49212,3.49212,0,0,1,2.21972-.65967h2.415v-.24023a1.47971,1.47971,0,0,0-.4873-1.18506,2.11631,2.11631,0,0,0-1.418-.41992,4.20547,4.20547,0,0,0-2.35449.81006l-.70508-1.2002a8.26656,8.26656,0,0,1,1.64258-.77246,5.95563,5.95563,0,0,1,1.792-.23242,3.45948,3.45948,0,0,1,2.37012.74267,2.653,2.653,0,0,1,.85547,2.0625l.01464,5.23487Zm-.72754-1.7168a1.48371,1.48371,0,0,0,.71289-1.08789v-.73535h-2.16015a2.43378,2.43378,0,0,0-1.252.248.88687.88687,0,0,0-.39746.81738,1.03784,1.03784,0,0,0,.41211.8623,1.796,1.796,0,0,0,1.13282.32227A2.728,2.728,0,0,0,245.4707,65.582Z" transform="translate(-50.00469 -18.33993)"/>
<path class="cls-3" d="M250.27832,56.169h1.72559V67.29883h-1.72559Z" transform="translate(-50.00469 -18.33993)"/>
<path class="cls-3" d="M261.87305,59.31885v7.98h-1.72461V65.73926a2.93869,2.93869,0,0,1-2.84961,1.62012,2.81245,2.81245,0,0,1-2.14551-.8252,3.14364,3.14364,0,0,1-.78027-2.25V59.31885h1.72558v4.48486a1.96546,1.96546,0,0,0,.49512,1.418,1.80093,1.80093,0,0,0,1.36523.51758,2.03,2.03,0,0,0,1.59668-.71289,2.64722,2.64722,0,0,0,.59278-1.77735V59.31885Z" transform="translate(-50.00469 -18.33993)"/>
<path class="cls-3" d="M269.208,67.29883v-.97461a3.7392,3.7392,0,0,1-4.11719.72754,2.33523,2.33523,0,0,1-1.32715-2.15235,2.12374,2.12374,0,0,1,.79492-1.74072,3.49215,3.49215,0,0,1,2.21973-.65967h2.415v-.24023a1.47969,1.47969,0,0,0-.48731-1.18506,2.11628,2.11628,0,0,0-1.418-.41992,4.2055,4.2055,0,0,0-2.3545.81006l-.70507-1.2002a8.26625,8.26625,0,0,1,1.64257-.77246,5.95574,5.95574,0,0,1,1.792-.23242,3.45947,3.45947,0,0,1,2.37011.74267,2.65293,2.65293,0,0,1,.85547,2.0625l.01465,5.23487Zm-.72754-1.7168a1.48373,1.48373,0,0,0,.71289-1.08789v-.73535H267.0332a2.43376,2.43376,0,0,0-1.252.248.88687.88687,0,0,0-.39746.81738,1.03784,1.03784,0,0,0,.41211.8623,1.796,1.796,0,0,0,1.13281.32227A2.72808,2.72808,0,0,0,268.48047,65.582Z" transform="translate(-50.00469 -18.33993)"/>
<path class="cls-3" d="M277.72852,66.78906a3.84461,3.84461,0,0,1-1.96485.585,2.10269,2.10269,0,0,1-2.23535-2.32519V60.90869h-1.125v-1.29h1.125V57.42871h1.71v2.18994h2.35547v1.29h-2.35547v3.82569a1.29128,1.29128,0,0,0,.21.83984.814.814,0,0,0,.64551.24023,2.92366,2.92366,0,0,0,1.2002-.3457Z" transform="translate(-50.00469 -18.33993)"/>
<path class="cls-3" d="M280.89258,56.28125a1.13918,1.13918,0,0,1,0,1.50781,1.01379,1.01379,0,0,1-1.43945,0,1.13915,1.13915,0,0,1,0-1.50781,1.03178,1.03178,0,0,1,1.43945,0Zm-1.57422,3.0376h1.71v7.98h-1.71Z" transform="translate(-50.00469 -18.33993)"/>
<path class="cls-3" d="M289.15918,59.769a3.67,3.67,0,0,1,1.46973,1.42481,4.14741,4.14741,0,0,1,.52441,2.1001,4.22253,4.22253,0,0,1-.52441,2.123,3.658,3.658,0,0,1-1.46973,1.43164,4.85649,4.85649,0,0,1-4.33594,0,3.658,3.658,0,0,1-1.46972-1.43164,4.22254,4.22254,0,0,1-.52442-2.123,4.14741,4.14741,0,0,1,.52442-2.1001,3.66993,3.66993,0,0,1,1.46972-1.42481,4.86075,4.86075,0,0,1,4.33594,0Zm-3.92285,1.6875a2.90635,2.90635,0,0,0,0,3.74268,2.50882,2.50882,0,0,0,3.51758,0,2.91917,2.91917,0,0,0-.00782-3.74268,2.48019,2.48019,0,0,0-3.50976,0Z" transform="translate(-50.00469 -18.33993)"/>
<path class="cls-3" d="M299.80078,60.07617a3.11869,3.11869,0,0,1,.78809,2.25781v4.96485h-1.72559V62.814a1.93153,1.93153,0,0,0-.50976-1.41748,1.88819,1.88819,0,0,0-1.41016-.51757,2.18732,2.18732,0,0,0-1.56738.61474,2.43515,2.43515,0,0,0-.69727,1.56006v4.24512H292.9541v-7.98h1.72461v1.52978a3.00174,3.00174,0,0,1,2.94043-1.58984A2.88588,2.88588,0,0,1,299.80078,60.07617Z" transform="translate(-50.00469 -18.33993)"/>
</svg>
