<svg xmlns="http://www.w3.org/2000/svg" viewBox="0 0 24.325 17.414"><g fill="none" stroke="#ffffff" stroke-linecap="round" stroke-linejoin="round" transform="translate(.5 .5)"><path d="M0 0H23.325V2.592H0z" transform="translate(0 12.095)"/><path d="m21.251 6.738 1.729 2.3a1.73 1.73 0 0 1 .345 1.036v2.016H0v-2.014A1.73 1.73 0 0 1 .345 9.04l1.729-2.3a1.727 1.727 0 0 1 1.382-.691h16.415a1.722 1.722 0 0 1 1.38.689z"/><path d="M0 1.728 0 0" transform="translate(1.728 14.686)"/><path d="M0 1.728 0 0" transform="translate(21.597 14.686)"/><path d="M3.455 4.32V0h16.414v4.32"/><path d="M7.887 3.456h1.072a1.84 1.84 0 0 1 1.84 1.84v.752h0-4.752 0v-.752a1.84 1.84 0 0 1 1.84-1.84zM14.366 3.456h1.072a1.84 1.84 0 0 1 1.84 1.84v.752h0-4.752 0v-.752a1.84 1.84 0 0 1 1.84-1.84z"/></g></svg>