<svg xmlns="http://www.w3.org/2000/svg" viewBox="0 0 22.382 19.215"><g fill="none" stroke="#443f34" stroke-linejoin="round"><path stroke-linecap="round" d="M4.752 15.047a2.379 2.379 0 0 1-2.376-2.376" transform="translate(.5 .5)"/><path d="M15.838 2.376a2.376 2.376 0 1 1 4.751 0v7.127" transform="translate(.5 .5)"/><path d="M13.462 4.751a2.376 2.376 0 0 1 4.752 0zM21.382 11.087a1.436 1.436 0 0 0-.793 1.282v.3a3.959 3.959 0 0 1-3.959 3.96H4.752a3.959 3.959 0 0 1-3.959-3.96v-.3a1.437 1.437 0 0 0-.792-1.282M0 11.087h21.382v-.792a.793.793 0 0 0-.793-.792H.789a.792.792 0 0 0-.792.792z" transform="translate(.5 .5)"/><path stroke-linecap="round" d="M16.63 16.631a1.583 1.583 0 0 1 1.583 1.584M4.751 16.631a1.585 1.585 0 0 0-1.584 1.584" transform="translate(.5 .5)"/></g></svg>