<svg xmlns="http://www.w3.org/2000/svg" viewBox="0 0 23.411 15.684"><g fill="none" stroke="#443f34" stroke-linecap="round" stroke-linejoin="round" transform="translate(.5 .5)"><path d="M3.091 10.047h0a3.091 3.091 0 0 1 3.091-3.091h10.047a3.091 3.091 0 0 1 3.091 3.091h0H3.091h0z"/><path d="M3.092 7.341v-5.8A1.545 1.545 0 0 1 4.637-.004H9.66a1.545 1.545 0 0 1 1.546 1.545v5.41M11.207 6.955v-5.41A1.545 1.545 0 0 1 12.752 0h5.023a1.547 1.547 0 0 1 1.548 1.545v5.41"/><path d="M19.321 4.638v5.409H3.092V4.638a.773.773 0 0 0-.773-.773H.774a.773.773 0 0 0-.772.773v6.184a2.318 2.318 0 0 0 2.317 2.317h17.775a2.318 2.318 0 0 0 2.318-2.317V4.638a.773.773 0 0 0-.772-.773h-1.546a.773.773 0 0 0-.773.773z"/><path d="M0 1.546 0 0" transform="translate(2.319 13.138)"/><path d="M0 1.546 0 0" transform="translate(20.093 13.138)"/></g></svg>